<svg id="Layer_1" data-name="Layer 1" xmlns="http://www.w3.org/2000/svg" viewBox="0 0 1071 260"><defs><style>.cls-1{fill:#fff;}.cls-2{fill:#a57711;}.cls-3{fill:#663317;}</style></defs><title>missing</title><rect class="cls-1" y="28" width="1071" height="232"/><rect class="cls-2" y="202" width="1071" height="58"/><rect class="cls-2" width="1071" height="117"/><path class="cls-3" d="M1070.6,123.14v72.45H903.33l80.11-72.45Z" transform="translate(0.4 0.41)"/><path class="cls-3" d="M923.16,122.14c-21.52,19.48-42,38-63.56,57.45a41,41,0,0,0-24,0,41.45,41.45,0,0,0-22.2,16.89l-813.8,0V122.14Z" transform="translate(0.4 0.41)"/><path d="M1044.36,42.62c-6.71-3.15-13.6-.21-15,.4l-8.51,4.08-1-2.25a3.42,3.42,0,0,0,1.84-1.44,2.7,2.7,0,0,0,.13-2.41,2.6,2.6,0,0,0-1.74-1.28c-.82-.2-1.64.16-3.26.88s-2.28,1-2.69,1.71a2.68,2.68,0,0,0-.25,2.36,2.65,2.65,0,0,0,1.86,1.33,3.63,3.63,0,0,0,2.31-.37l1,2.32-8.84,4.23-1-2.34a3.42,3.42,0,0,0,1.84-1.44,2.76,2.76,0,0,0,.13-2.42,2.64,2.64,0,0,0-1.74-1.28c-.82-.19-1.64.17-3.26.89s-2.28,1-2.69,1.71a2.3,2.3,0,0,0,1.61,3.69,3.64,3.64,0,0,0,2.31-.37l1,2.41L1000.25,57l-1-2.38a3.4,3.4,0,0,0,1.84-1.43,2.76,2.76,0,0,0,.13-2.42,2.64,2.64,0,0,0-1.74-1.28c-.82-.19-1.64.16-3.26.89s-2.28,1-2.69,1.7a2.32,2.32,0,0,0,1.61,3.7,3.64,3.64,0,0,0,2.31-.37l1.06,2.44-8.31,4L989,59.17a3.45,3.45,0,0,0,1.84-1.44,2.75,2.75,0,0,0,.12-2.41A2.67,2.67,0,0,0,989.25,54c-.82-.19-1.65.17-3.27.89s-2.28,1-2.68,1.71a2.3,2.3,0,0,0,1.61,3.69,3.61,3.61,0,0,0,2.3-.37l1.18,2.7-8.6,4.11-1.16-2.68a3.37,3.37,0,0,0,1.84-1.44,2.73,2.73,0,0,0,.13-2.41A2.64,2.64,0,0,0,978.86,59c-.82-.2-1.64.16-3.26.88s-2.28,1-2.69,1.71a2.31,2.31,0,0,0,1.61,3.7,3.72,3.72,0,0,0,2.31-.37L978,67.61,968.83,72l-1.21-2.78a3.42,3.42,0,0,0,1.84-1.44,2.74,2.74,0,0,0,.13-2.41,2.68,2.68,0,0,0-1.74-1.29c-.82-.19-1.65.17-3.26.89s-2.28,1-2.69,1.71a2.3,2.3,0,0,0,1.61,3.69,3.61,3.61,0,0,0,2.3-.37l1.24,2.84-9,4.3a101.8,101.8,0,0,0-2.56,13,98.64,98.64,0,0,0-.84,11.93c-37.38,33.75-55.81,50.33-93.18,84.08a33.66,33.66,0,0,0-11-2.78,34.13,34.13,0,0,0-35.78,42.11l15.19-13.64h0l4.45-4L852,213.63l3.84,18.17-4.45,4h0l-15.19,13.64a34.13,34.13,0,0,0,45.7-31.06,33.46,33.46,0,0,0-1.57-11.22c37.52-33.74,56.1-50.31,93.62-84h0a24.93,24.93,0,0,1,22.58-7.61c3.15-3.85,5.6-7.06,7.18-9.18,6.73-9,8.75-12.94,14-18.38a67.42,67.42,0,0,1,7.79-6.89,22,22,0,0,0,11.51.4,22.25,22.25,0,0,0,16.52-17.4C1054.82,56.76,1052.55,46.48,1044.36,42.62ZM972.48,81.44a2.47,2.47,0,1,1,.17-3.49A2.47,2.47,0,0,1,972.48,81.44Zm11-5.15a2.47,2.47,0,1,1,.17-3.49A2.47,2.47,0,0,1,983.49,76.29Zm10.31-5a2.47,2.47,0,1,1,.17-3.49A2.47,2.47,0,0,1,993.8,71.28ZM1004,66.36a2.47,2.47,0,1,1,.17-3.49A2.47,2.47,0,0,1,1004,66.36Zm10.29-4.83a2.47,2.47,0,1,1,.18-3.49A2.47,2.47,0,0,1,1014.3,61.53Zm10.57-5.08a2.47,2.47,0,1,1,.18-3.49A2.47,2.47,0,0,1,1024.87,56.45Z" transform="translate(0.4 0.41)"/><circle cx="971.23" cy="80.02" r="1.73"/><circle cx="981.83" cy="74.46" r="1.73" transform="translate(204.83 679.17) rotate(-42.2)"/><circle cx="992.54" cy="69.87" r="1.73"/><circle cx="1002.75" cy="64.94" r="1.73"/><circle cx="1013.05" cy="60.11" r="1.73"/><path d="M1022.23,53.2a1.73,1.73,0,1,0,2.41.43A1.72,1.72,0,0,0,1022.23,53.2Z" transform="translate(0.4 0.41)"/></svg>